Coordinates
version=1
nRows=12
nColumns=24
inDegrees=yes

Units are S.I. units (second, meters, Newtons, ...)
Angles are in degrees.

endheader
time	pelvis_tilt	pelvis_list	pelvis_rotation	pelvis_tx	pelvis_ty	pelvis_tz	hip_flexion_r	hip_adduction_r	hip_rotation_r	knee_angle_r	ankle_angle_r	subtalar_angle_r	mtp_angle_r	hip_flexion_l	hip_adduction_l	hip_rotation_l	knee_angle_l	ankle_angle_l	subtalar_angle_l	mtp_angle_l	lumbar_extension	lumbar_bending	lumbar_rotation
      5.81000000	     38.62098978	      3.58021886	     -2.34671107	      0.68900429	      1.06903924	     -0.33091688	     34.90018503	    -11.59282369	      8.58090439	    -75.01204926	    -19.32971919	      0.00000000	      0.00000000	     27.41326535	    -13.43278635	     -6.83547445	    -69.14256305	    -12.70705045	      0.00000000	      0.00000000	      0.00000000	      0.00000000	      0.00000000
      5.82000000	     38.62215093	      3.57977952	     -2.34231568	      0.68898774	      1.06904953	     -0.33089744	     34.89502585	    -11.57682650	      8.55142606	    -74.98033580	    -19.33000169	      0.00000000	      0.00000000	     27.41498348	    -13.43017232	     -6.83076675	    -69.13390000	    -12.71111005	      0.00000000	      0.00000000	      0.00000000	      0.00000000	      0.00000000
      5.83000000	     38.62694336	      3.57720376	     -2.34177097	      0.68899529	      1.06905527	     -0.33087396	     34.88383796	    -11.55706770	      8.52519537	    -74.95291550	    -19.32222776	      0.00000000	      0.00000000	     27.41015053	    -13.43223768	     -6.83008603	    -69.12798614	    -12.70697465	      0.00000000	      0.00000000	      0.00000000	      0.00000000	      0.00000000
      5.84000000	     38.63547323	      3.57360325	     -2.34333480	      0.68900677	      1.06905463	     -0.33085725	     34.86833290	    -11.53735700	      8.50090284	    -74.93000391	    -19.31082832	      0.00000000	      0.00000000	     27.40084368	    -13.43605912	     -6.83358763	    -69.12530068	    -12.69867282	      0.00000000	      0.00000000	      0.00000000	      0.00000000	      0.00000000
      5.85000000	     38.64729496	      3.57007755	     -2.34472478	      0.68900193	      1.06905712	     -0.33084490	     34.85197090	    -11.52144298	      8.47812386	    -74.91134481	    -19.30008415	      0.00000000	      0.00000000	     27.39037640	    -13.43838465	     -6.84014666	    -69.12441123	    -12.69030719	      0.00000000	      0.00000000	      0.00000000	      0.00000000	      0.00000000
      5.86000000	     38.66043708	      3.56787188	     -2.34430515	      0.68897554	      1.06906370	     -0.33083883	     34.83797965	    -11.51121878	      8.45718211	    -74.89666238	    -19.29301350	      0.00000000	      0.00000000	     27.38164466	    -13.43722278	     -6.84810389	    -69.12336999	    -12.68490848	      0.00000000	      0.00000000	      0.00000000	      0.00000000	      0.00000000
      5.87000000	     38.67150760	      3.56787790	     -2.34181183	      0.68893912	      1.06906364	     -0.33084910	     34.82818909	    -11.50635260	      8.43864548	    -74.88608113	    -19.29097093	      0.00000000	      0.00000000	     27.37592870	    -13.43270936	     -6.85613969	    -69.12111379	    -12.68403338	      0.00000000	      0.00000000	      0.00000000	      0.00000000	      0.00000000
      5.88000000	     38.67756300	      3.56964548	     -2.33813695	      0.68891158	      1.06905543	     -0.33087495	     34.82313671	    -11.50539267	      8.42279775	    -74.88008523	    -19.29379500	      0.00000000	      0.00000000	     27.37317651	    -13.42665524	     -6.86403112	    -69.11790873	    -12.68792490	      0.00000000	      0.00000000	      0.00000000	      0.00000000	      0.00000000
      5.89000000	     38.67802252	      3.57148656	     -2.33439106	      0.68890552	      1.06905194	     -0.33089800	     34.82245089	    -11.50678128	      8.40940613	    -74.87900347	    -19.30026551	      0.00000000	      0.00000000	     27.37329033	    -13.42118213	     -6.87278889	    -69.11472131	    -12.69586634	      0.00000000	      0.00000000	      0.00000000	      0.00000000	      0.00000000
      5.90000000	     38.67469550	      3.57191752	     -2.33096487	      0.68892189	      1.06906036	     -0.33090404	     34.82500488	    -11.50904976	      8.39800310	    -74.88245609	    -19.30863063	      0.00000000	      0.00000000	     27.37676303	    -13.41751230	     -6.88377112	    -69.11230702	    -12.70648496	      0.00000000	      0.00000000	      0.00000000	      0.00000000	      0.00000000
      5.91000000	     38.67006139	      3.57064100	     -2.32732102	      0.68895005	      1.06907228	     -0.33089485	     34.82924940	    -11.51104805	      8.38853500	    -74.88930143	    -19.31705331	      0.00000000	      0.00000000	     27.38388838	    -13.41559449	     -6.89725114	    -69.11081851	    -12.71801241	      0.00000000	      0.00000000	      0.00000000	      0.00000000	      0.00000000
      5.92000000	     38.66556658	      3.56835816	     -2.32264236	      0.68897015	      1.06907574	     -0.33088156	     34.83376126	    -11.51243112	      8.38179926	    -74.89817776	    -19.32392414	      0.00000000	      0.00000000	     27.39362306	    -13.41461558	     -6.91158489	    -69.10995873	    -12.72858956	      0.00000000	      0.00000000	      0.00000000	      0.00000000	      0.00000000
